<svg width="50" height="50" viewBox="0 0 50 50" fill="none" xmlns="http://www.w3.org/2000/svg">
<circle cx="25" cy="25" r="25" fill="#F9F9F9"/>
<path d="M27.9746 25.5L35.4873 17.9873C36.1709 17.3037 36.1709 16.1963 35.4873 15.5127C34.8037 14.8291 33.6963 14.8291 33.0127 15.5127L25.5 23.0254L17.9873 15.5127C17.3037 14.8291 16.1963 14.8291 15.5127 15.5127C14.8291 16.1963 14.8291 17.3037 15.5127 17.9873L23.0254 25.5L15.5127 33.0127C14.8291 33.6963 14.8291 34.8037 15.5127 35.4873C15.8545 35.8291 16.3022 36 16.75 36C17.1978 36 17.6455 35.8291 17.9873 35.4873L25.5 27.9746L33.0127 35.4873C33.3545 35.8291 33.8022 36 34.25 36C34.6978 36 35.1455 35.8291 35.4873 35.4873C36.1709 34.8037 36.1709 33.6963 35.4873 33.0127L27.9746 25.5Z" fill="#0F1C2C"/>
</svg>
