<svg width="300" height="275" viewBox="0 0 300 275" fill="none" xmlns="http://www.w3.org/2000/svg">
<path d="M138.973 -3.13954e-05L46 199.389L206.599 274.275L299.572 74.8857L138.973 -3.13954e-05Z" fill="#CBF86D"/>
<path d="M50.5823 189.695C50.5823 189.695 47.8699 198.955 45.4929 207.076C43.238 214.779 41.1348 221.96 41.1348 221.96L44.9401 227" stroke="#602B7A" stroke-width="5.00949" stroke-linecap="round" stroke-linejoin="round"/>
<path d="M84.8484 141.165C84.8484 141.165 87.573 154.076 92.9888 160.577C98.1262 166.743 104.801 171.18 104.801 171.18L110.209 163.082" stroke="#602B7A" stroke-width="5.00949" stroke-linecap="round" stroke-linejoin="round"/>
<path d="M35.5895 142.238C35.5895 142.238 26.6681 151.96 18.696 154.796C11.1339 157.485 3.1301 157.904 3.1301 157.904L2.6018 148.18" stroke="#602B7A" stroke-width="5.00949" stroke-linecap="round" stroke-linejoin="round"/>
<path d="M38.8779 192.826C38.8779 192.826 39.1669 202.823 33.5003 209.106C28.1251 215.067 21.0077 219.043 21.0077 219.043L23.219 225.396" stroke="#602B7A" stroke-width="5.00949" stroke-linecap="round" stroke-linejoin="round"/>
<path d="M30.9545 161.852C32.1847 153.928 36.5307 110.966 37.7662 89.4015L91.7804 104.757C90.7173 127.933 86.8378 163.127 85.0436 174.685C82.8342 188.916 71.7002 207.572 67.4908 216.318L47.1206 194.462L5.24601 196.832C13.1431 189.504 29.2735 172.68 30.9545 161.852Z" fill="#F34A8E"/>
<path d="M79.6596 120.004C76.6755 122.723 69.6968 128.16 62.2989 127.388C55.3727 126.664 49.9309 120.691 47.3304 117.242C46.3979 116.005 46.9788 114.32 48.4598 113.867C52.403 112.661 59.869 110.806 66.667 111.516C73.3001 112.209 77.5988 115.167 79.6873 117.01C80.6076 117.822 80.5667 119.177 79.6596 120.004Z" fill="white"/>
<path d="M71.1265 117.469C70.6625 121.911 66.6854 125.136 62.2434 124.672C57.8014 124.207 54.5767 120.23 55.0407 115.788C55.5047 111.346 59.4818 108.122 63.9238 108.586C68.3658 109.05 71.5905 113.027 71.1265 117.469Z" fill="#FF3495"/>
<path d="M67.1043 117.049C66.8723 119.27 64.8837 120.883 62.6627 120.651C60.4417 120.419 58.8293 118.43 59.0614 116.209C59.2934 113.988 61.2819 112.376 63.5029 112.608C65.7239 112.84 67.3363 114.828 67.1043 117.049Z" fill="#5F2583"/>
<path d="M83.8887 121.785C79.6888 118.749 70.8358 110.53 65.5018 109.701C60.1679 108.873 56.8487 110.378 50.6365 112.552C42.1973 115.506 36.8049 114.156 35.0109 112.953" stroke="#602B7A" stroke-width="3.13093" stroke-linecap="round" stroke-linejoin="bevel"/>
<path d="M54.8624 110.869C47.0967 110.712 45.2243 109.165 41.7653 107.137" stroke="#602B7A" stroke-width="3.13093" stroke-linecap="round" stroke-linejoin="bevel"/>
<path d="M67.1744 140.501C67.1744 140.501 63.5997 142.252 59.5233 141.411C55.4469 140.57 52.5996 137.256 52.5996 137.256" stroke="white" stroke-width="2.50475" stroke-linecap="round" stroke-linejoin="round"/>
<path d="M169.724 189.695C169.724 189.695 172.437 198.955 174.814 207.076C177.069 214.779 179.172 221.96 179.172 221.96L175.366 227" stroke="#602B7A" stroke-width="5.00949" stroke-linecap="round" stroke-linejoin="round"/>
<path d="M135.458 141.165C135.458 141.165 132.734 154.076 127.318 160.577C122.18 166.743 115.506 171.18 115.506 171.18L110.098 163.082" stroke="#602B7A" stroke-width="5.00949" stroke-linecap="round" stroke-linejoin="round"/>
<path d="M184.717 142.238C184.717 142.238 193.639 151.96 201.611 154.796C209.173 157.485 217.177 157.904 217.177 157.904L217.705 148.18" stroke="#602B7A" stroke-width="5.00949" stroke-linecap="round" stroke-linejoin="round"/>
<path d="M181.429 192.826C181.429 192.826 181.14 202.823 186.806 209.106C192.182 215.067 199.299 219.043 199.299 219.043L197.088 225.396" stroke="#602B7A" stroke-width="5.00949" stroke-linecap="round" stroke-linejoin="round"/>
<path d="M189.352 161.852C188.122 153.928 183.776 110.966 182.54 89.4015L128.526 104.757C129.589 127.933 133.469 163.127 135.263 174.685C137.472 188.916 148.606 207.572 152.816 216.318L173.186 194.462L215.061 196.832C207.164 189.504 191.033 172.68 189.352 161.852Z" fill="#9D61FF"/>
<path d="M140.816 117.499C143.8 120.219 150.779 125.656 158.177 124.883C165.103 124.159 170.545 118.186 173.145 114.737C174.078 113.501 173.497 111.816 172.016 111.363C168.073 110.157 160.607 108.302 153.809 109.012C147.175 109.705 142.877 112.662 140.788 114.505C139.868 115.317 139.909 116.672 140.816 117.499Z" fill="white"/>
<path d="M149.348 114.964C149.812 119.406 153.789 122.631 158.231 122.167C162.673 121.703 165.898 117.726 165.434 113.284C164.97 108.842 160.993 105.617 156.551 106.081C152.109 106.545 148.884 110.522 149.348 114.964Z" fill="#FF3495"/>
<path d="M153.369 114.544C153.601 116.765 155.59 118.378 157.811 118.146C160.032 117.914 161.644 115.925 161.412 113.704C161.18 111.483 159.192 109.871 156.971 110.103C154.75 110.335 153.137 112.323 153.369 114.544Z" fill="#5F2583"/>
<path d="M136.587 119.28C140.787 116.244 149.64 108.025 154.974 107.197C160.308 106.368 163.627 107.873 169.839 110.047C178.278 113.001 183.671 111.652 185.465 110.448" stroke="#602B7A" stroke-width="3.13093" stroke-linecap="round" stroke-linejoin="bevel"/>
<path d="M165.613 108.365C173.379 108.207 175.251 106.66 178.71 104.632" stroke="#602B7A" stroke-width="3.13093" stroke-linecap="round" stroke-linejoin="bevel"/>
<path d="M158.403 139.7C154.326 140.541 151.786 137.37 151.786 137.37C151.786 137.37 154.043 137.957 157.487 137.37C160.931 136.782 166.36 134.125 166.36 134.125C166.36 134.125 162.479 138.859 158.403 139.7Z" stroke="white" stroke-width="2.50475" stroke-linecap="round" stroke-linejoin="round"/>
</svg>
