<svg width="110" height="110" viewBox="0 0 110 110" fill="none" xmlns="http://www.w3.org/2000/svg">
<path d="M85.0615 76.3471C84.974 76.3471 84.8872 76.3308 84.8056 76.2991L80.8117 74.7442C80.7028 74.7017 80.6063 74.6328 80.5307 74.5437C80.4551 74.4546 80.4028 74.3481 80.3786 74.2338C80.3544 74.1195 80.3589 74.001 80.3919 73.8889C80.4249 73.7768 80.4852 73.6747 80.5675 73.5917C80.9804 73.1735 90.5946 63.169 82.2451 47.3998C82.1582 47.2347 82.1404 47.0419 82.1955 46.8637C82.2506 46.6854 82.3741 46.5363 82.539 46.449C82.7039 46.3618 82.8967 46.3434 83.075 46.3981C83.2534 46.4528 83.4028 46.576 83.4905 46.7406C90.9891 60.9035 84.4749 70.98 82.2468 73.791L85.3175 74.9861C85.4705 75.0458 85.5977 75.1572 85.6773 75.3008C85.7569 75.4444 85.7839 75.6113 85.7535 75.7727C85.7232 75.934 85.6374 76.0797 85.5111 76.1846C85.3848 76.2895 85.2257 76.347 85.0615 76.3471Z" fill="black"/>
<path d="M49.8633 82.248C49.6944 82.248 49.5312 82.1874 49.4033 82.0772C49.2754 81.967 49.1913 81.8145 49.1664 81.6475C49.1415 81.4805 49.1774 81.3101 49.2676 81.1674C49.3577 81.0246 49.4962 80.919 49.6577 80.8698C52.2778 80.0693 54.6284 79.5014 56.7022 78.9999C61.2567 77.8991 64.2662 77.1717 65.2674 75.1936C66.115 73.52 65.6325 70.714 63.7014 66.0953C63.6653 66.0099 63.6465 65.9183 63.6459 65.8256C63.6454 65.7329 63.6631 65.641 63.6981 65.5552C63.7331 65.4694 63.7847 65.3914 63.85 65.3256C63.9152 65.2598 63.9928 65.2075 64.0783 65.1717C64.1638 65.136 64.2555 65.1174 64.3482 65.1172C64.4409 65.1169 64.5327 65.135 64.6183 65.1703C64.704 65.2056 64.7819 65.2575 64.8475 65.323C64.913 65.3885 64.9651 65.4662 65.0005 65.5519C67.1339 70.6533 67.5896 73.7273 66.5246 75.8302C65.2288 78.3883 61.9684 79.1764 57.0328 80.3694C54.9784 80.8662 52.6495 81.4291 50.0689 82.2172C50.0023 82.2376 49.933 82.248 49.8633 82.248Z" fill="black"/>
<path d="M50.3222 82.6332C51.0987 85.0749 51.1241 91.2914 48.3607 93.5366L48.128 93.8863C48.128 93.8863 42.9529 99.3665 41.0236 93.2995C40.3149 91.0711 37.4936 83.3801 37.8692 82.5246C38.9692 80.0195 44.0021 80.6607 44.9041 79.9969C48.3525 77.4588 49.9544 81.4768 50.3222 82.6332Z" fill="white"/>
<path d="M43.9303 96.8604C43.6925 96.8611 43.4555 96.8349 43.2236 96.7824C41.9136 96.4834 40.9476 95.3834 40.3526 93.5133C40.1973 93.0253 39.9397 92.2734 39.6376 91.3888C37.4262 84.9286 36.9076 82.9623 37.2248 82.2414C38.1287 80.1834 40.883 79.8957 42.8947 79.6855C43.4358 79.658 43.9723 79.5706 44.4942 79.4249C44.957 79.0161 45.5137 78.728 46.1148 78.5863C46.7158 78.4446 47.3426 78.4537 47.9393 78.6127C49.7932 79.2147 50.6928 81.4756 50.9941 82.4197C51.8333 85.0606 51.8375 91.4958 48.8901 94.0122L48.7147 94.2766C48.6927 94.31 48.6677 94.3413 48.6401 94.3702C48.5351 94.4816 46.2591 96.8604 43.9303 96.8604ZM38.5382 82.7571C38.4853 83.6727 40.1596 88.5655 40.9703 90.9325C41.2774 91.8292 41.5376 92.5915 41.6954 93.0862C42.1284 94.4472 42.7478 95.2288 43.5375 95.409C44.9935 95.7399 46.9028 94.1413 47.5759 93.445L47.7739 93.1468C47.8134 93.0877 47.8614 93.0349 47.9166 92.9901C50.3227 91.0349 50.4091 85.2301 49.6513 82.8469C49.2736 81.6621 48.5116 80.2799 47.5046 79.9528C47.1185 79.8721 46.7186 79.8856 46.3388 79.992C45.959 80.0985 45.6105 80.2948 45.3226 80.5644C44.6129 80.9128 43.8321 81.0916 43.0415 81.0868C41.3949 81.2587 39.1492 81.4932 38.5382 82.7571Z" fill="black"/>
<path d="M48.1273 94.5905C47.9709 94.5903 47.8191 94.5381 47.6957 94.4421C47.5724 94.3461 47.4844 94.2117 47.4458 94.0603L44.0234 80.6657C44.0002 80.576 43.9949 80.4826 44.0079 80.3909C44.0209 80.2991 44.0518 80.2109 44.0989 80.1311C44.1461 80.0513 44.2085 79.9816 44.2826 79.926C44.3567 79.8704 44.4411 79.83 44.5308 79.8071C44.6206 79.7841 44.714 79.7791 44.8057 79.7924C44.8974 79.8056 44.9856 79.8368 45.0653 79.8842C45.1449 79.9315 45.2144 79.9942 45.2698 80.0684C45.3251 80.1427 45.3653 80.2272 45.388 80.317L48.8104 93.7116C48.8333 93.8012 48.8384 93.8945 48.8253 93.986C48.8122 94.0776 48.7812 94.1656 48.734 94.2452C48.6869 94.3248 48.6245 94.3943 48.5505 94.4497C48.4765 94.5052 48.3923 94.5456 48.3027 94.5685C48.2453 94.5831 48.1864 94.5905 48.1273 94.5905Z" fill="black"/>
<path d="M57.2688 96.8885C59.4232 97.0234 61.5839 97.0234 63.7383 96.8885C65.2855 96.7921 66.3952 95.6878 66.2248 94.5128C66.0781 93.4338 65.9311 92.3547 65.784 91.2754C65.6647 90.6917 65.3336 90.1728 64.8546 89.8186C64.3756 89.4644 63.7825 89.2999 63.1895 89.3568C61.4006 89.4686 59.6065 89.4686 57.8177 89.3568C57.2246 89.2997 56.6314 89.4641 56.1523 89.8183C55.6732 90.1726 55.3422 90.6916 55.2231 91.2754C55.0763 92.3553 54.9294 93.4344 54.7823 94.5128C54.6096 95.6827 55.723 96.7912 57.2688 96.8885Z" fill="white"/>
<path d="M60.5042 97.6679C59.409 97.6679 58.3138 97.6339 57.2261 97.5657C56.7369 97.5461 56.2571 97.4258 55.8165 97.2123C55.3759 96.9988 54.9841 96.6967 54.6656 96.3249C54.4446 96.0628 54.2811 95.7573 54.1855 95.4281C54.09 95.0988 54.0645 94.7532 54.1109 94.4136L54.5506 91.1846C54.6942 90.4315 55.1121 89.7584 55.7234 89.2957C56.3347 88.8329 57.0959 88.6134 57.8597 88.6795C59.6207 88.789 61.3868 88.789 63.1477 88.6795C63.9098 88.6137 64.6693 88.8322 65.28 89.2929C65.8906 89.7536 66.3092 90.4239 66.4552 91.1748L66.8974 94.4213C66.9425 94.7611 66.916 95.1066 66.8196 95.4355C66.7232 95.7644 66.559 96.0695 66.3377 96.3312C66.0192 96.7017 65.6277 97.0025 65.1877 97.2149C64.7478 97.4274 64.2687 97.5468 63.7805 97.5658C62.6937 97.6337 61.5985 97.6679 60.5042 97.6679ZM57.3117 96.2112C59.4377 96.3438 61.5698 96.3438 63.6958 96.2112C63.9965 96.2019 64.2922 96.132 64.5652 96.0055C64.8382 95.8791 65.0829 95.6988 65.2844 95.4754C65.387 95.3578 65.464 95.2202 65.5104 95.0712C65.5567 94.9222 65.5715 94.7652 65.5538 94.6102L65.1116 91.3674C65.0217 90.9498 64.7785 90.5811 64.4299 90.3343C64.0814 90.0874 63.6529 89.9803 63.2292 90.0342C61.4128 90.1472 59.5913 90.1472 57.775 90.034C57.3512 89.9865 56.9248 90.0973 56.5777 90.345C56.2305 90.5927 55.9871 90.96 55.8942 91.3762L55.4545 94.6047C55.4358 94.7596 55.4498 94.9168 55.4956 95.066C55.5415 95.2151 55.6181 95.3531 55.7205 95.4708C55.922 95.6952 56.1669 95.8765 56.4404 96.0038C56.7138 96.131 57.0102 96.2016 57.3117 96.2112Z" fill="black"/>
<path d="M64.0228 89.4405C63.9434 88.345 63.5776 85.0563 60.4013 85.112C57.2251 85.1677 56.967 88.7987 56.7798 89.352C56.7798 89.352 58.4984 89.4405 60.3701 89.4405L64.0228 89.4405Z" fill="white"/>
<path d="M64.0229 90.1448H60.3697C58.5015 90.1448 56.7609 90.0563 56.7433 90.0554C56.6347 90.0498 56.5288 90.019 56.434 89.9656C56.3392 89.9122 56.2581 89.8376 56.1969 89.7476C56.1358 89.6576 56.0964 89.5546 56.0817 89.4468C56.067 89.339 56.0774 89.2293 56.1122 89.1262C56.1307 89.0681 56.1483 88.9694 56.1743 88.8438C56.3959 87.761 57.0689 84.4659 60.3881 84.4076C62.9478 84.3782 64.492 86.1794 64.7253 89.3893C64.7324 89.4858 64.7195 89.5828 64.6874 89.6742C64.6554 89.7656 64.6048 89.8493 64.5388 89.9202C64.4729 89.9911 64.393 90.0477 64.3043 90.0863C64.2155 90.125 64.1197 90.1449 64.0229 90.1448ZM57.6522 88.6835C58.3253 88.7078 59.3273 88.7361 60.3697 88.7361H63.234C62.9209 86.7702 61.9491 85.7843 60.4133 85.8162C58.6593 85.8471 58.0056 87.2192 57.6522 88.6835Z" fill="black"/>
<path d="M59.4568 85.8161C59.326 85.8163 59.1977 85.78 59.0864 85.7114C58.975 85.6427 58.885 85.5443 58.8265 85.4274C53.6149 75.036 54.3719 61.4364 54.4063 60.8626C54.4106 60.7698 54.4335 60.6788 54.4736 60.595C54.5137 60.5113 54.5702 60.4364 54.6398 60.3748C54.7094 60.3132 54.7906 60.2662 54.8786 60.2365C54.9666 60.2069 55.0597 60.1952 55.1523 60.2021C55.3387 60.2135 55.513 60.2984 55.6368 60.4382C55.7607 60.578 55.824 60.7612 55.8128 60.9476C55.8044 61.0846 55.0466 74.7488 60.0854 84.7959C60.1391 84.9032 60.1646 85.0225 60.1593 85.1424C60.154 85.2623 60.1182 85.3789 60.0553 85.4811C59.9923 85.5833 59.9043 85.6677 59.7995 85.7264C59.6948 85.785 59.5768 85.8159 59.4568 85.8161Z" fill="black"/>
<path d="M63.3982 67.8766C62.0987 68.9255 60.7256 69.9581 60.7279 69.9537C60.7366 69.9606 58.8646 69.2201 57.5259 68.5805C47.1605 64.5869 35.2453 59.5622 27.4278 53.2585C24.3551 50.3009 21.8341 46.5802 21.1075 42.1432C20.4942 37.7242 20.6909 32.7966 23.7379 28.4347C26.7486 24.0629 31.5109 21.7366 35.9697 20.736C40.5113 19.7838 44.2114 20.1489 48.0459 22.1344C50.7459 23.8813 53.2215 25.9527 55.4173 28.3021C56.9337 25.7805 59.3092 22.2687 61.0726 20.7291C64.2481 17.9135 67.7798 16.7821 72.2619 16.8645C77.1734 16.939 81.8939 18.7792 85.56 22.0486C89.4422 25.6155 90.6541 29.8988 90.9807 33.9251C91.202 37.9898 89.8177 41.8203 87.5055 45.4099C81.8369 53.5166 72.0561 61.413 63.3982 67.8766Z" fill="url(#paint0_linear_135_112)"/>
<path d="M71.8103 16.8605C71.9597 16.8605 72.1102 16.8619 72.2618 16.8647C77.1733 16.9392 81.8938 18.7794 85.5599 22.0486C89.4422 25.6154 90.654 29.8988 90.9805 33.925C91.202 37.9899 89.8177 41.8205 87.5052 45.4099C81.8366 53.5169 72.0558 61.4133 63.3982 67.8766C62.1025 68.9228 60.7337 69.952 60.7278 69.9538C60.719 69.9538 58.8584 69.2173 57.5257 68.5808C47.1603 64.5868 35.2453 59.5624 27.4279 53.2585C24.355 50.301 21.8339 46.5803 21.1076 42.1432C20.4941 37.7242 20.6909 32.7967 23.7377 28.4348C26.7485 24.0628 31.5107 21.7368 35.9696 20.7361C37.4385 20.4145 38.9369 20.246 40.4406 20.2333C43.0938 20.229 45.7067 20.8822 48.0457 22.1346C50.7457 23.8814 53.2213 25.9527 55.4171 28.3021C56.9336 25.7807 59.3091 22.2689 61.0723 20.7293C64.0128 18.0931 67.8642 16.7055 71.8103 16.8605ZM71.8103 15.829C67.6124 15.6771 63.5189 17.1567 60.3883 19.9576C58.5836 21.5333 56.4364 24.7286 55.2371 26.6291C53.2151 24.5846 50.9696 22.7739 48.543 21.2311C46.0496 19.9003 43.267 19.2034 40.4406 19.2019C38.8658 19.2136 37.2965 19.3896 35.7581 19.7268C30.2036 20.9736 25.6382 23.8571 22.8884 27.8498C20.1916 31.7103 19.2739 36.4339 20.0862 42.285C20.7757 46.498 23.0038 50.4319 26.7128 54.0016L26.7451 54.0326L26.7804 54.0611C34.678 60.4297 46.5439 65.4534 57.1174 69.5287C58.2723 70.1269 59.4811 70.6146 60.7278 70.9852H60.8713L61.0094 70.9457C61.1147 70.9159 61.3618 70.8458 64.0461 68.6789C72.2568 62.55 82.4711 54.409 88.3503 46.0008C91.0384 41.8298 92.2284 37.8724 92.0102 33.8688C91.5738 28.483 89.7464 24.4946 86.2577 21.2891C82.4047 17.8599 77.4505 15.9246 72.2933 15.8341C72.1229 15.8307 71.966 15.829 71.8103 15.829Z" fill="url(#paint1_linear_135_112)"/>
<path d="M62.3261 52.8785C62.222 52.8785 62.1214 52.8407 62.0431 52.7721C61.9648 52.7036 61.9139 52.609 61.9001 52.5058C61.8863 52.4026 61.9103 52.2979 61.9678 52.2112C62.0253 52.1244 62.1124 52.0615 62.2128 52.034C62.8967 51.8464 64.6793 51.1406 64.7103 50.1405C64.7219 49.974 64.6984 49.807 64.6415 49.6502C64.5845 49.4934 64.4953 49.3502 64.3797 49.2299C63.7598 48.7579 63.0028 48.5012 62.2237 48.499C62.1187 48.4979 62.0177 48.4585 61.9398 48.3881C61.8619 48.3177 61.8124 48.2213 61.8007 48.1169C61.7891 48.0126 61.816 47.9076 61.8764 47.8217C61.9369 47.7359 62.0267 47.6751 62.1289 47.6509C62.4848 47.584 62.8142 47.4165 63.0779 47.1681C63.3416 46.9198 63.5286 46.6011 63.6168 46.2498C63.6808 46.0251 63.6803 45.787 63.6155 45.5626C63.5506 45.3381 63.424 45.1364 63.2501 44.9805C62.7499 44.5798 61.8578 44.6368 60.8029 45.1349C60.7518 45.159 60.6966 45.1727 60.6402 45.1754C60.5839 45.178 60.5276 45.1696 60.4745 45.1505C60.4214 45.1314 60.3727 45.102 60.3309 45.0641C60.2892 45.0261 60.2554 44.9803 60.2313 44.9293C60.2073 44.8783 60.1936 44.823 60.1909 44.7667C60.1882 44.7104 60.1967 44.654 60.2158 44.601C60.2349 44.5479 60.2642 44.4991 60.3022 44.4574C60.3401 44.4157 60.3859 44.3818 60.437 44.3578C62.3059 43.4753 63.3382 43.9497 63.788 44.3104C64.0885 44.5664 64.3105 44.9021 64.4286 45.2788C64.5466 45.6554 64.5558 46.0578 64.4552 46.4395C64.3285 46.9903 64.0271 47.4854 63.5958 47.8507C64.1225 47.9864 64.6052 48.2557 64.9974 48.6326C65.1937 48.835 65.346 49.076 65.4445 49.3402C65.543 49.6045 65.5856 49.8863 65.5697 50.1678C65.5126 51.9742 62.7532 52.7776 62.4394 52.8632C62.4024 52.8732 62.3643 52.8783 62.3261 52.8785Z" fill="black"/>
<path d="M62.2028 33.2615C61.5212 40.519 73.302 47.8543 73.302 47.8543C73.302 47.8543 86.188 43.4229 86.8697 36.1654C87.5513 28.9079 77.8027 27.2533 74.557 34.4923C71.7203 27.0019 62.8844 26.004 62.2028 33.2615Z" fill="white"/>
<path d="M68.6376 37.259C68.9494 40.5334 73.9949 44.2798 73.9949 44.2798C73.9949 44.2798 79.4924 41.7086 80.2848 38.2578C81.0888 34.7564 77.3602 33.2153 74.469 37.6487C72.0405 32.9707 68.2957 33.6684 68.6376 37.259Z" fill="#C917CF"/>
<path d="M27.1266 41.9762C28.9323 49.5771 47.074 52.3518 47.074 52.3518C47.074 52.3518 56.4575 43.0379 54.6518 35.4371C52.8461 27.8362 41.7906 29.9078 40.8342 38.475C35.1658 31.9902 25.3209 34.3753 27.1266 41.9762Z" fill="white"/>
<path d="M36.4712 44.2888C38.2646 47.0042 44.9299 47.7437 44.9299 47.7437C44.9299 47.7437 49.1718 42.7125 48.3848 39.285C47.5863 35.8072 43.218 36.3376 42.3859 41.6867C37.8727 38.8086 34.5047 41.3113 36.4712 44.2888Z" fill="#C917CF"/>
<path d="M75.665 26.0626C75.4762 26.0626 75.2927 26.0002 75.143 25.8851C73.1743 24.3851 70.9133 23.3139 68.5055 22.7405C68.282 22.6976 68.0847 22.5678 67.9568 22.3796C67.8288 22.1914 67.7808 21.9602 67.8231 21.7366C67.8654 21.513 67.9947 21.3154 68.1826 21.187C68.3705 21.0586 68.6016 21.0099 68.8253 21.0517C71.5001 21.667 74.0113 22.8503 76.1887 24.5213C76.3312 24.6307 76.4358 24.7819 76.4879 24.9538C76.54 25.1257 76.537 25.3096 76.4792 25.4796C76.4214 25.6497 76.3118 25.7973 76.1658 25.9019C76.0197 26.0065 75.8446 26.0627 75.665 26.0626Z" fill="black"/>
<path d="M27.0616 19.0986C26.8749 19.0987 26.6931 19.038 26.5439 18.9256C26.3948 18.8132 26.2863 18.6553 26.2348 18.4757C26.1834 18.2962 26.1919 18.1048 26.259 17.9305C26.3262 17.7561 26.4482 17.6085 26.6068 17.5097C29.7867 15.5289 33.1251 13.8146 36.5878 12.3845C36.8017 12.3057 37.0381 12.3151 37.2451 12.4107C37.452 12.5062 37.6126 12.6801 37.6914 12.894C37.7702 13.1079 37.7608 13.3443 37.6652 13.5513C37.5697 13.7582 37.3959 13.9188 37.1819 13.9976C33.8312 15.3921 30.5984 17.0546 27.5148 18.9688C27.3789 19.0537 27.2219 19.0987 27.0616 19.0986Z" fill="black"/>
<path d="M24.063 62.6949C21.9422 62.6951 20.1572 62.2774 19.0704 61.2546C16.6022 58.9303 18.2697 54.3349 24.026 47.5958C24.0861 47.5255 24.1595 47.4677 24.2419 47.4258C24.3243 47.3838 24.4142 47.3585 24.5064 47.3513C24.5986 47.344 24.6914 47.3551 24.7793 47.3837C24.8673 47.4123 24.9488 47.4579 25.0191 47.518C25.0894 47.5781 25.1472 47.6515 25.1891 47.7339C25.2311 47.8163 25.2564 47.9062 25.2636 47.9984C25.2709 48.0907 25.2599 48.1834 25.2313 48.2713C25.2026 48.3593 25.157 48.4408 25.0969 48.5111C20.0648 54.4021 18.268 58.5636 20.0363 60.2289C23.3169 63.32 37.0769 58.9707 40.9576 55.8017C39.9841 55.0736 38.9474 54.4341 37.86 53.8908C37.694 53.8049 37.569 53.6565 37.5124 53.4785C37.4558 53.3004 37.4723 53.1071 37.5582 52.9412C37.6442 52.7752 37.7925 52.6502 37.9706 52.5937C38.1486 52.5371 38.3419 52.5536 38.5078 52.6395C42.3952 54.6501 42.5143 55.4656 42.5529 55.7337C42.5744 55.8733 42.5619 56.016 42.5165 56.1497C42.4711 56.2834 42.394 56.4041 42.2919 56.5016C39.7432 58.958 30.4067 62.6943 24.063 62.6949Z" fill="black"/>
<defs>
<linearGradient id="paint0_linear_135_112" x1="67.0382" y1="96.2377" x2="52.2637" y2="17.5299" gradientUnits="userSpaceOnUse">
<stop offset="0.15922" stop-color="#F214B8"/>
<stop offset="0.20043" stop-color="#F31EC2"/>
<stop offset="0.33084" stop-color="#F63ADD"/>
<stop offset="0.46212" stop-color="#F84EF0"/>
<stop offset="0.59374" stop-color="#FA5AFB"/>
<stop offset="0.72626" stop-color="#FA5EFF"/>
<stop offset="0.86181" stop-color="#FA67FF"/>
<stop offset="1" stop-color="#FB76FF"/>
</linearGradient>
<linearGradient id="paint1_linear_135_112" x1="55.9182" y1="70.9852" x2="55.9182" y2="15.8291" gradientUnits="userSpaceOnUse">
<stop stop-color="#B427C2"/>
<stop offset="1" stop-color="#D238D6"/>
</linearGradient>
</defs>
</svg>
