<svg width="142" height="153" viewBox="0 0 142 153" fill="none" xmlns="http://www.w3.org/2000/svg">
<path d="M87.7441 98.586C87.1824 97.3221 85.7025 96.753 84.4387 97.3147C83.1749 97.8764 82.6057 99.3562 83.1674 100.62L87.7441 98.586ZM83.8906 148.748L81.9352 147.184C81.3677 147.893 81.2289 148.854 81.5723 149.695C81.9157 150.536 82.6876 151.125 83.5893 151.234L83.8906 148.748ZM93.9191 152.486C95.2921 152.653 96.54 151.674 96.7064 150.301C96.8729 148.928 95.8948 147.681 94.5218 147.514L93.9191 152.486ZM83.1674 100.62C84.3896 103.37 85.8361 107.001 86.9727 110.738C88.1203 114.512 88.899 118.226 88.899 121.202H93.9074C93.9074 117.495 92.9645 113.227 91.7644 109.281C90.5533 105.298 89.0261 101.47 87.7441 98.586L83.1674 100.62ZM88.899 121.202C88.899 126.55 87.9046 132.152 86.497 136.928C85.068 141.776 83.3014 145.476 81.9352 147.184L85.8461 150.312C87.8188 147.846 89.8085 143.408 91.3011 138.344C92.815 133.207 93.9074 127.123 93.9074 121.202H88.899ZM83.5893 151.234L93.9191 152.486L94.5218 147.514L84.192 146.262L83.5893 151.234Z" fill="#8D30B9"/>
<path d="M44.7627 27.2935C58.7436 24.7989 74.8934 35.5205 78.4529 38.0421C78.8909 38.3525 79.4688 38.3616 79.9203 38.0712C83.2924 35.902 97.3634 27.2941 108.307 27.2939C124.584 27.2939 137.225 43.8233 128.966 63.2914C116.792 91.9885 84.4653 111.827 79.7479 114.606C79.3762 114.825 78.961 114.827 78.5857 114.614C73.5997 111.788 38.1784 90.9166 28.7984 63.2914C23.9949 49.1447 28.9467 30.1156 44.7627 27.2935Z" fill="#EC4F92"/>
<path d="M65.5015 100.624C66.5143 99.6818 66.5719 98.0973 65.6301 97.0845C64.6883 96.0717 63.1037 96.0141 62.0909 96.956L65.5015 100.624ZM21.5799 124.828L21.6957 122.326C21.0122 122.295 20.3455 122.544 19.8506 123.017C19.3557 123.489 19.0757 124.144 19.0757 124.828L21.5799 124.828ZM19.0757 136.227C19.0757 137.61 20.1969 138.731 21.5799 138.731C22.9629 138.731 24.0841 137.61 24.0841 136.227L19.0757 136.227ZM62.0909 96.956C59.435 99.4258 56.7865 102.565 54.2856 105.388C51.7104 108.294 49.263 110.9 46.8073 112.685L49.7517 116.736C52.7013 114.593 55.4723 111.6 58.0341 108.709C60.6703 105.734 63.0775 102.878 65.5015 100.624L62.0909 96.956ZM46.8073 112.685C42.4811 115.829 37.3651 118.318 32.674 119.987C27.912 121.681 23.8804 122.427 21.6957 122.326L21.4641 127.329C24.6186 127.475 29.3789 126.475 34.353 124.706C39.398 122.91 44.9621 120.217 49.7517 116.736L46.8073 112.685ZM19.0757 124.828L19.0757 136.227L24.0841 136.227L24.0841 124.828L19.0757 124.828Z" fill="#8D30B9"/>
<path d="M73.2476 85.1426C73.2476 85.1426 77.1524 87.6468 80.4471 87.6468C83.7418 87.6468 87.6467 85.1426 87.6467 85.1426" stroke="white" stroke-width="2.5042" stroke-linecap="round" stroke-linejoin="bevel"/>
<rect width="73.1972" height="2.97591" rx="1.48796" transform="matrix(0.911105 -0.412175 0.412174 0.911105 7.66699 47.1177)" fill="#8D30B9"/>
<path d="M26.052 34.426C22.725 27.0716 25.9898 18.4125 33.3442 15.0854C40.6987 11.7583 49.3577 15.0231 52.6848 22.3776L54.3278 26.0094L27.695 38.0578L26.052 34.426Z" fill="#8D30B9"/>
<path d="M104.863 57.5964C112.585 56.0313 130.782 53.3393 133.036 52.5881C138.357 50.8143 139.4 56.3447 139.922 59.1619" stroke="white" stroke-width="3.13025" stroke-linecap="round" stroke-linejoin="round"/>
<path d="M54.4663 57.5964C46.745 56.0313 28.5479 53.3393 26.2941 52.5881C20.9727 50.8143 19.9293 56.3447 19.4075 59.1619" stroke="white" stroke-width="3.13025" stroke-linecap="round" stroke-linejoin="round"/>
<path d="M66.9873 42.8842L80.4474 18.7812L93.2814 42.8842L123.958 43.8233L102.046 61.9787L107.994 88.5859L80.4474 72.9346L48.8319 88.5859L58.8487 61.9787L37.563 45.0754L66.9873 42.8842Z" fill="#F89FBF" stroke="white" stroke-width="3.13025" stroke-linecap="round" stroke-linejoin="round"/>
<path d="M96.9274 55.2161C94.377 58.0541 88.5186 63.6027 81.6992 63.6027C75.3415 63.6027 69.819 58.7799 67.0338 55.8272C65.9713 54.7009 66.3721 52.9638 67.7999 52.3647C71.375 50.8646 77.9674 48.5164 84.2034 48.5164C90.2802 48.5164 94.4924 50.7462 96.6403 52.2482C97.646 52.9514 97.7477 54.3034 96.9274 55.2161Z" fill="white"/>
<path d="M88.8987 53.5858C88.8987 57.7349 85.5352 61.0985 81.3861 61.0985C77.237 61.0985 73.8735 57.7349 73.8735 53.5858C73.8735 49.4367 77.237 46.0732 81.3861 46.0732C85.5352 46.0732 88.8987 49.4367 88.8987 53.5858Z" fill="#FF3495"/>
<path d="M85.1425 53.5859C85.1425 55.6604 83.4607 57.3422 81.3862 57.3422C79.3116 57.3422 77.6299 55.6604 77.6299 53.5859C77.6299 51.5113 79.3116 49.8296 81.3862 49.8296C83.4607 49.8296 85.1425 51.5113 85.1425 53.5859Z" fill="#5F2583"/>
<path d="M101.107 56.3421C96.9333 53.9422 87.9599 47.2019 82.9515 46.9515C77.9431 46.7011 75.0215 48.4119 69.4914 51.0204C61.9788 54.5641 56.8661 53.8377 55.0923 52.8987" stroke="#8D30B9" stroke-width="3.13025" stroke-linecap="round" stroke-linejoin="bevel"/>
<path d="M73.2337 49.0573C66.0432 49.6614 64.1637 48.4125 60.772 46.873" stroke="#8D30B9" stroke-width="3.13025" stroke-linecap="round" stroke-linejoin="bevel"/>
<path d="M65.4219 54.1506C70.1172 59.785 76.6908 64.1051 81.6992 63.8546C86.7076 63.6042 94.5332 59.472 97.0374 54.1506" stroke="#8D30B9" stroke-width="1.87815" stroke-linecap="round" stroke-linejoin="bevel"/>
</svg>
