<svg width="145" height="153" viewBox="0 0 145 153" fill="none" xmlns="http://www.w3.org/2000/svg">
<path d="M113.328 15.5236C110.799 20.1804 105.772 40.3968 104.729 46.6691L108.373 48.525C118.381 43.4149 140.557 25.4426 139.189 20.4333C137.884 15.6572 125.579 26.6227 120.933 30.838C127.828 22.6814 139.57 12.9163 134.818 9.65275C131.73 7.53129 122.519 17.8592 115.818 28.8139C120.324 18.1737 129.151 6.37597 127.145 3.48076C124.321 -0.595068 117.691 7.48894 113.328 15.5236Z" stroke="#8D30B9" stroke-width="1.7461" stroke-linecap="round" stroke-linejoin="round"/>
<path d="M23.9476 67.1388C29.2354 67.4837 49.0175 74.0141 54.8792 76.4776L54.5059 80.5492C44.845 86.2897 17.8145 95.4622 14.3071 91.6328C10.963 87.9818 26.8019 83.4214 32.8455 81.7399C22.2682 83.2222 7.74557 87.9455 7.51919 82.1858C7.37203 78.4417 21.0208 76.1594 33.8614 76.3338C22.4576 74.4705 7.77025 75.6441 6.39123 72.403C4.44987 67.8402 14.8243 66.5436 23.9476 67.1388Z" stroke="#8D30B9" stroke-width="1.7461" stroke-linecap="round" stroke-linejoin="round"/>
<path d="M47.1372 109.655V18.5526C47.1372 16.0541 49.6846 14.3639 51.9867 15.335L136.71 51.0737C139.468 52.2372 139.58 56.1044 136.894 57.4252L112.983 69.1814C111.143 70.0861 110.474 72.3741 111.538 74.1271L132.913 109.346C133.88 110.94 133.425 113.013 131.878 114.055L109.293 129.265C107.82 130.257 105.838 129.986 104.686 128.635L76.0581 95.0714C74.7505 93.5384 72.4205 93.427 70.9726 94.8282L53.0579 112.165C50.842 114.309 47.1372 112.739 47.1372 109.655Z" fill="#8D30B9"/>
<path d="M122.126 115.325C122.126 115.325 119.605 123.933 117.395 131.481C115.299 138.641 113.344 145.316 113.344 145.316L116.881 150" stroke="#8D30B9" stroke-width="4.65626" stroke-linecap="round" stroke-linejoin="round"/>
<path d="M102.703 123.391C102.703 123.391 95.5843 130.185 88.4419 133.478C81.6668 136.6 74.3222 136.47 74.3222 136.47L73.8843 142.707" stroke="#8D30B9" stroke-width="4.65626" stroke-linecap="round" stroke-linejoin="round"/>
<path d="M85.6544 47.0971C82.4488 46.0272 75.1154 44.1803 69.6253 47.3501C64.1351 50.5198 62.0679 57.7941 61.3916 61.1052C61.1865 62.1098 61.7445 63.0763 62.7171 63.4009C65.9227 64.4708 73.256 66.3177 78.7462 63.1479C84.2364 59.9782 86.3036 52.7038 86.9798 49.3928C87.185 48.3882 86.627 47.4217 85.6544 47.0971Z" fill="white"/>
<path d="M79.8621 51.9715C77.9731 48.6996 73.7895 47.5786 70.5176 49.4676C67.2458 51.3566 66.1247 55.5403 68.0137 58.8121C69.9027 62.084 74.0864 63.205 77.3583 61.316C80.6301 59.427 81.7511 55.2433 79.8621 51.9715Z" fill="#21D373"/>
<path d="M76.9006 53.6815C75.9561 52.0456 73.8642 51.4851 72.2283 52.4296C70.5924 53.3741 70.0319 55.4659 70.9764 57.1019C71.9209 58.7378 74.0127 59.2983 75.6486 58.3538C77.2845 57.4093 77.8451 55.3175 76.9006 53.6815Z" fill="#5F2583"/>
<path d="M75.9248 74.5703C75.9248 74.5703 83.9056 76.5655 88.466 72.5751C93.0265 68.5847 92.7415 62.5991 92.7415 62.5991" stroke="white" stroke-width="2.32813" stroke-linecap="round" stroke-linejoin="round"/>
</svg>
