<svg width="200" height="153" viewBox="0 0 200 153" fill="none" xmlns="http://www.w3.org/2000/svg">
<path d="M129.757 66.4666L159.732 57.0289C162.111 56.2799 164.579 57.8994 164.839 60.3798L170.958 118.789L185.406 118.789" stroke="#8D30B9" stroke-width="4.73264" stroke-linecap="round" stroke-linejoin="round"/>
<path d="M83.2419 54.0023L75.1258 23.4223C74.3611 20.5409 70.7991 19.517 68.6211 21.5525L21.5708 65.5232L6.45209 61.4722" stroke="#8D30B9" stroke-width="4.73264" stroke-linecap="round" stroke-linejoin="round"/>
<path d="M131.223 78.0852L168.83 75.1933C171.121 75.0171 172.956 77.0597 172.537 79.3186L162.531 133.237L179.774 140.32" stroke="#8D30B9" stroke-width="4.73264" stroke-linecap="round" stroke-linejoin="round"/>
<path d="M73.4576 62.596L45.7524 22.2689C43.8494 19.4989 39.5756 20.226 38.6955 23.4693L18.7002 97.1594L3.00007 92.9526" stroke="#8D30B9" stroke-width="4.73264" stroke-linecap="round" stroke-linejoin="round"/>
<path d="M118.873 88.4818L147.92 93.5093C152.056 94.2252 154.903 98.0612 154.388 102.227L149.012 145.793L164.712 150" stroke="#8D30B9" stroke-width="4.73264" stroke-linecap="round" stroke-linejoin="round"/>
<path d="M81.6596 78.5063L53.2585 66.5656C49.1515 64.8388 44.4313 66.863 42.851 71.0286L26.9022 113.07L11.2021 108.863" stroke="#8D30B9" stroke-width="4.73264" stroke-linecap="round" stroke-linejoin="round"/>
<ellipse cx="102.934" cy="69.4294" rx="31.304" ry="31.3039" fill="#FA5B00"/>
<path fill-rule="evenodd" clip-rule="evenodd" d="M113.026 86.9912C113.726 87.4422 113.929 88.3759 113.478 89.0766C111.804 91.6778 109.323 92.8871 107.008 93.3521C104.722 93.8112 102.508 93.5694 101.115 93.1898C100.311 92.9707 99.8366 92.1413 100.056 91.3373C100.275 90.5333 101.104 90.0591 101.908 90.2782C102.914 90.5524 104.65 90.7477 106.413 90.3935C108.147 90.0452 109.816 89.1906 110.94 87.4434C111.391 86.7427 112.325 86.5402 113.026 86.9912Z" fill="white"/>
<path d="M120.589 66.7834C117.559 63.3642 110.23 56.2578 101.67 56.2578C93.1106 56.2578 85.7818 63.3642 82.751 66.7834C81.8293 67.8232 81.8293 69.3359 82.751 70.3758C85.7818 73.7949 93.1106 80.9014 101.67 80.9014C110.23 80.9014 117.559 73.7949 120.589 70.3757C121.511 69.3359 121.511 67.8232 120.589 66.7834Z" fill="white"/>
<path d="M110.523 68.5799C110.523 63.4761 106.386 59.3386 101.282 59.3386C96.178 59.3386 92.0405 63.4761 92.0405 68.5799C92.0405 73.6838 96.178 77.8213 101.282 77.8213C106.386 77.8213 110.523 73.6838 110.523 68.5799Z" fill="#00AF85"/>
<path d="M105.904 68.5825C105.904 66.0305 103.836 63.9618 101.284 63.9618C98.7318 63.9618 96.6631 66.0305 96.6631 68.5825C96.6631 71.1344 98.7318 73.2031 101.284 73.2031C103.836 73.2031 105.904 71.1344 105.904 68.5825Z" fill="#5F2583"/>
<path d="M101.951 34.9951C105.791 42.7396 117.716 56.8835 134.694 51.5027" stroke="#8D30B9" stroke-width="4.73264" stroke-linecap="round" stroke-linejoin="round"/>
<path d="M116.662 2.16524C113.827 15.1138 106.339 37.6476 106.339 37.6476C106.339 37.6476 106.339 45.0296 114.699 50.0669C123.059 55.1041 127.85 50.0669 127.85 50.0669L153.664 23.369C154.378 22.6311 154.208 21.4193 153.319 20.9062L119.028 1.10855C118.089 0.566116 116.894 1.10547 116.662 2.16524Z" fill="#8D30B9"/>
<path d="M110.279 39.6777C113.222 42.6253 115.899 46.9425 127.594 49.2923" stroke="#FF5C00" stroke-width="2.36632" stroke-linecap="round" stroke-linejoin="round"/>
</svg>
