<svg xmlns="http://www.w3.org/2000/svg" width="141" height="153" fill="none" xmlns:v="https://vecta.io/nano"><style><![CDATA[.B{fill:#8d30b9}.C{stroke-linecap:round}.D{stroke-linejoin:round}.E{stroke:#8d30b9}.F{stroke-width:5.366}.G{fill:#ffe920}.H{stroke-width:2.683}]]></style><g fill="#5f2583"><path d="M105.458 97.427c.411-.259.653-.863.577-1.568l-.996-9.462c-.098-.944-.725-1.712-1.399-1.718s-1.138.758-1.041 1.702l.996 9.462c.098.944.726 1.712 1.399 1.718a.85.85 0 0 0 .464-.134z"/><path d="M98.506 90.992c.472.109 1.072-.143 1.52-.693l6.023-7.364c.603-.733.707-1.72.237-2.203s-1.339-.276-1.942.458l-6.023 7.364c-.602.734-.706 1.72-.237 2.203a.85.85 0 0 0 .422.235zm10.32 6.475c.41-.259.653-.863.577-1.568l-.996-9.462c-.098-.944-.726-1.712-1.399-1.718s-1.139.758-1.041 1.702l.996 9.462c.098.944.725 1.712 1.399 1.718a.85.85 0 0 0 .464-.134zm3.785-.171c.41-.259.653-.863.577-1.568l-.996-9.462c-.098-.944-.725-1.712-1.399-1.718s-1.139.758-1.041 1.702l.996 9.462c.098.944.726 1.712 1.399 1.718.17.002.325-.046.464-.134zm-62.718 3.89c-.207.508-.749.861-1.412.854l-8.895-.071c-.887-.006-1.655-.65-1.717-1.435s.611-1.416 1.498-1.411l8.895.071c.887.005 1.655.649 1.717 1.434a1.23 1.23 0 0 1-.086.558zm-12.017 12.861c-.47-.284-.733-.875-.622-1.529l1.466-8.774c.144-.875.901-1.533 1.686-1.47s1.303.825 1.159 1.7l-1.466 8.774c-.144.876-.901 1.533-1.686 1.471-.198-.015-.38-.078-.537-.172zm-3.957.834c-.471-.282-.738-.871-.63-1.525l1.42-8.782c.14-.876.893-1.537 1.678-1.479s1.307.818 1.168 1.695l-1.42 8.781c-.14.876-.893 1.538-1.678 1.48-.198-.014-.378-.075-.538-.17zm-3.841-1.174c-.471-.282-.738-.871-.63-1.525l1.42-8.782c.14-.876.893-1.537 1.678-1.479s1.307.819 1.168 1.695l-1.42 8.781c-.14.877-.893 1.538-1.678 1.48a1.2 1.2 0 0 1-.538-.17z"/></g><path d="M35.384 55.251c.727.128 1.495-.166 1.936-.811.027-.042 2.852-4.145 5.309-5.981 1.93-1.441 5.6-3.34 5.635-3.361a1.92 1.92 0 0 0 .827-2.592c-.492-.942-1.66-1.308-2.607-.823-.16.085-3.99 2.066-6.179 3.699-2.973 2.222-6.054 6.701-6.183 6.893a1.92 1.92 0 0 0 .513 2.672 1.9 1.9 0 0 0 .747.304zm56.472-13.854a1.94 1.94 0 0 0 1.843-1.306c.344-1.006-.194-2.097-1.204-2.437l-9.096-2.609c-3.722-.762-9.078.818-9.679.999-1.023.31-1.596 1.388-1.286 2.401a1.93 1.93 0 0 0 2.412 1.274c1.368-.416 5.428-1.387 7.768-.909 3.19.651 8.579 2.464 8.633 2.484a1.86 1.86 0 0 0 .61.103z" class="B"/><g class="C D"><path d="M56.918 129.078l-6.64 5.09" stroke="#ffe920" class="H"/><path d="M70.111 96.046l-.001 25.153-14.257 9.35" class="E F"/><path d="M116.635 122.542l3.996 7.351" stroke="#ffe920" class="H"/><path d="M88.337 99.925l24.083 7.256 4.663 15.623" class="E F"/></g><path d="M54.367 152.312c1.823.329 3.567-.883 3.895-2.706s-.883-3.567-2.706-3.895l-1.189 6.601zm-9.822-14.283l-1.883-2.775c-1.141.775-1.692 2.169-1.388 3.514l3.271-.739zm3.502-6.43l-5.385 3.655 3.767 5.55 5.385-3.655-3.767-5.55zm-3.502 6.43l-3.271.74.007.031.013.057.045.182.166.616.668 2.026c.59 1.578 1.564 3.739 3.051 5.608l5.248-4.177c-.864-1.085-1.542-2.51-2.016-3.779l-.501-1.52-.114-.42-.024-.096c-.002-.008-.002-.007-3.273.732zm.68 9.26c1.715 2.154 4.136 3.378 5.835 4.046a20.26 20.26 0 0 0 2.272.741l.711.171.216.045.069.013.024.004c.016.003.017.003.611-3.297l.596-3.3-.095-.02-.432-.105c-.386-.101-.924-.261-1.517-.494-1.27-.499-2.405-1.182-3.041-1.981l-5.248 4.177zm93.765-13.101c1.551-1.012 1.989-3.09.977-4.642s-3.09-1.988-4.642-.976l3.665 5.618zm-16.014 1.38l-3.031 1.436c.657 1.388 2.173 2.152 3.68 1.855l-.649-3.291zm-5.931-4.688l2.9 6.124 6.062-2.871-2.9-6.124-6.062 2.871zm5.931 4.688l.649 3.291.02-.004.052-.011.195-.039.713-.146 2.399-.514 6.188-1.564-1.947-6.418-5.696 1.434-2.304.494-.679.139-.181.036-.045.009c-.013.003-.013.003.636 3.293zm10.216 1.013c1.899-.576 3.276-1.127 4.216-1.558l1.09-.545.317-.181.105-.064c.014-.01.028-.018.039-.025l.017-.011c.013-.009.014-.009-1.818-2.818l-1.831-2.81.021-.014.017-.01c-.01.005-.043.025-.1.057l-.655.325c-.65.298-1.742.743-3.365 1.236l1.947 6.418z" class="B"/><path d="M56.517 132.951l-3.059-4.151m66.332-5.874l-4.856 1.731" class="C D E F"/><rect width="28.619" height="99.192" rx="9.421" transform="matrix(-.953176 .301622 .304931 .952628 65.1294 7.86279)" class="G"/><rect width="24.165" height="95.403" rx="9.421" transform="matrix(-.953176 .301622 .304931 .952628 65.1436 7.90454)" fill="#fff"/><g class="B"><path d="M38.049 15.107c-2.134.174-3.731-.363-3.751-.371-.95-.327-1.982.163-2.308 1.097-.312.914.154 1.909 1.052 2.268l.068.027c.103.037 2.605.908 5.852.506 3.852-.474 9.645-2.162 13.297-5.36a46.71 46.71 0 0 0 3.674-3.683c.657-.743.578-1.882-.186-2.54s-1.911-.591-2.569.156l-.017.019c-.13.144-.968 1.077-2.002 2.097l-4.439-7.419C46.019.83 36.2 6.767 36.205 8.362c.006 1.085 1.127 4.603 1.844 6.745z"/><path d="M38.049 15.107l.298-.099c.031.091.018.192-.035.272s-.14.132-.236.14l-.026-.313zm-3.751-.371l.102-.297-.102.297zm-2.308 1.097l-.297-.102v-.002l.296.104zm1.052 2.268l-.116.292h0l.116-.292zm.068.027l-.104.296-.012-.005.116-.292zm5.852.506l-.039-.312h0l.039.312zm13.297-5.36l-.207-.236.207.236zm3.674-3.683l-.239-.205.003-.004.235.208zm-.186-2.54l-.205.238h0l.205-.237zm-2.569.156l.236.208-.003.003-.233-.211zm-.017.019l.234.21h0l-.234-.21zm-2.002 2.097l.221.224c-.069.068-.165.1-.261.087s-.181-.069-.23-.152l.27-.16zm-4.439-7.419l.263-.171h0l-.263.17zM36.205 8.362l-.314.001v-.001h.314zm1.87 7.058c-2.19.179-3.835-.37-3.893-.393l.232-.583c-.018-.007 1.53.519 3.608.349l.052.626zm-3.878-.387c-.791-.273-1.643.138-1.91.904l-.593-.208c.383-1.101 1.596-1.672 2.706-1.29l-.203.594zm-1.909.902a1.5 1.5 0 0 0 .871 1.874l-.232.583a2.13 2.13 0 0 1-1.233-2.662l.594.204zm.871 1.874l.068.027-.232.583-.068-.027.232-.583zm.056.023c.082.029 2.531.884 5.709.491l.078.624c-3.316.41-5.871-.478-5.995-.522l.208-.592zm5.709.491c3.822-.47 9.544-2.145 13.129-5.285l.414.473c-3.718 3.257-9.583 4.958-13.465 5.436l-.078-.624zm13.129-5.285c1.81-1.586 3.574-3.571 3.642-3.651l.477.409a46.99 46.99 0 0 1-3.705 3.715l-.414-.473zm3.646-3.655c.539-.61.477-1.549-.155-2.094l.409-.475c.894.772.99 2.111.216 2.986l-.471-.417zm-.155-2.094a1.52 1.52 0 0 0-2.128.126l-.471-.416c.775-.879 2.124-.952 3.01-.185l-.41.475zm-2.364-.082l.233.211-.016.018-.467-.421.017-.019c.002-.002.002-.002.234.21zm.216.229a50.64 50.64 0 0 1-2.016 2.111l-.441-.448c1.028-1.013 1.861-1.941 1.989-2.084l.467.421zm-2.506 2.046l-4.433-7.408.527-.341c.53.819 3.176 5.283 4.446 7.43l-.54.319zm-4.432-7.407c.026.04.051.027-.013.018s-.167-.005-.319.023c-.302.057-.719.196-1.221.409-1 .422-2.278 1.105-3.542 1.875s-2.499 1.62-3.415 2.372c-.459.377-.829.722-1.082 1.016a2.32 2.32 0 0 0-.275.379c-.06.109-.071.171-.071.195l-.628.001c-.001-.175.065-.347.148-.499a2.93 2.93 0 0 1 .349-.486c.286-.332.688-.704 1.159-1.091.946-.776 2.207-1.643 3.486-2.422s2.586-1.479 3.624-1.918c.517-.218.982-.379 1.35-.447.183-.034.362-.05.52-.028s.341.088.454.262l-.526.342zm-9.938 6.286c.001.234.065.627.182 1.143.115.508.276 1.11.461 1.748.369 1.277.827 2.687 1.185 3.756l-.595.198a99.67 99.67 0 0 1-1.193-3.781c-.186-.644-.351-1.259-.47-1.783-.117-.516-.196-.969-.198-1.278l.628-.002z"/></g><path d="M88.1 37.134c1.791-3.553 6.137-4.994 9.708-3.218l29.532 14.687.189.091c3.571 1.776 5.014 6.096 3.223 9.65l-14.902 29.57c-1.791 3.554-6.138 4.995-9.709 3.219a7.17 7.17 0 0 1-3.223-9.65l11.659-23.133-23.254-11.565c-3.571-1.776-5.014-6.096-3.223-9.65z" class="G"/><path d="M88.855 36.271c1.588-3.151 5.329-4.045 8.496-2.47l30.679 15.167.168.081c3.167 1.575 4.446 5.406 2.858 8.558L116.78 86.238a6.44 6.44 0 0 1-8.61 2.854c-3.167-1.575-3.568-4.959-1.98-8.11l11.61-23.375-25.494-13.021c-3.167-1.575-5.039-5.164-3.451-8.315z" fill="#fff"/><path d="M21.199 78.249l17.463-19.138c2.682-2.939 2.457-7.489-.503-10.161s-7.534-2.456-10.216.483L5.684 73.826l-.062.067c-2.682 2.94-2.457 7.489.503 10.162l24.633 22.24c2.96 2.672 7.534 2.456 10.217-.484s2.457-7.489-.503-10.161l-19.272-17.4z" class="G"/><path d="M21.308 78.179l17.409-19.161c1.914-2.097 2.453-5.863.881-8.507s-5.376-1.983-7.29.115L10.238 75.023l-.044.048c-1.914 2.097-1.753 5.343.359 7.25l23.288 21.19a5.18 5.18 0 0 0 7.289-.345c1.914-2.097 1.753-5.343-.359-7.25L21.308 78.179z" fill="#fff"/><path d="M28.297 6.773c-1.529 1.555-5.151 6.65-3.598 12.846m24.501-.53c-.88-.014-3.486.229-5.456 1.759m13.81 19.219c.839.267 3.404.786 5.732-.111M64.339 16.1c-.832.288-3.198 1.408-4.525 3.519" stroke-width="1.256" class="C D E"/><path d="M70.537 29.984c8.966-2.485 5.254-10.905 3.621-14.353a1.05 1.05 0 0 0-1.288-.544L62.7 18.534c-4.09 1.372-7.788 2.496-11.921 3.747l-12.636 3.756c-.605.178-.91.851-.647 1.424 3.689 8.052 6.182 11.221 13.993 8.716 8.115-2.602 6.009-6.16 5.037-9.504a2.06 2.06 0 0 0-.029-.089l-.003-.008c-.107-.315-.605-2.097 1.486-2.742 2.06-.635 3.052.961 3.236 1.299.022.041.044.081.069.12 1.358 2.183 1.539 6.867 9.25 4.73z" class="B"/><path d="M46.383 32.624l-.702 2.168m3.327-9.845L47.17 30.59m22.353-6.103l-1.064 3.001m3.328-9.846l-1.545 4.429m2.705-.81l-1.838 5.643m-20.575 1.544l-1.838 5.643" stroke="#fff" stroke-width="1.732" class="C D"/></svg>