<svg width="141" height="153" viewBox="0 0 141 153" fill="none" xmlns="http://www.w3.org/2000/svg">
<path d="M105.458 97.4274C105.869 97.1686 106.111 96.5646 106.035 95.8597L105.039 86.3979C104.941 85.4539 104.314 84.6859 103.64 84.68C102.968 84.678 102.502 85.4381 102.599 86.382L103.595 95.8439C103.693 96.7878 104.321 97.5558 104.994 97.5618C105.166 97.5622 105.322 97.5136 105.458 97.4274Z" fill="#5F2583"/>
<path d="M98.5059 90.9915C98.9783 91.1009 99.5783 90.8485 100.026 90.2985L106.049 82.9341C106.652 82.2007 106.756 81.2143 106.286 80.7314C105.815 80.2525 104.947 80.4556 104.344 81.1891L98.3206 88.5534C97.7185 89.2869 97.6142 90.2733 98.0838 90.7561C98.2046 90.8787 98.3484 90.955 98.5059 90.9915Z" fill="#5F2583"/>
<path d="M108.826 97.4674C109.236 97.2086 109.479 96.6047 109.403 95.8998L108.407 86.4379C108.309 85.494 107.681 84.7259 107.008 84.72C106.336 84.718 105.869 85.4781 105.967 86.422L106.963 95.8839C107.061 96.8278 107.688 97.5959 108.362 97.6018C108.531 97.6039 108.689 97.5537 108.826 97.4674Z" fill="#5F2583"/>
<path d="M112.611 97.296C113.021 97.0372 113.264 96.4333 113.188 95.7284L112.192 86.2665C112.094 85.3226 111.467 84.5545 110.793 84.5486C110.121 84.5466 109.654 85.3067 109.752 86.2506L110.748 95.7125C110.846 96.6565 111.474 97.4245 112.147 97.4304C112.317 97.4325 112.472 97.384 112.611 97.296Z" fill="#5F2583"/>
<path d="M49.8934 101.186C49.6867 101.694 49.1445 102.047 48.4817 102.04L39.5863 101.969C38.699 101.963 37.9312 101.319 37.8693 100.534C37.8112 99.75 38.48 99.1177 39.3673 99.1229L48.2627 99.194C49.1499 99.1991 49.9178 99.843 49.9797 100.628C49.9945 100.829 49.9623 101.016 49.8934 101.186Z" fill="#5F2583"/>
<path d="M37.8759 114.047C37.4062 113.763 37.1426 113.172 37.254 112.518L38.7196 103.744C38.8639 102.869 39.6203 102.211 40.4057 102.274C41.1891 102.339 41.7087 103.099 41.5644 103.974L40.0988 112.748C39.9546 113.624 39.1982 114.281 38.4128 114.219C38.2152 114.204 38.0325 114.141 37.8759 114.047Z" fill="#5F2583"/>
<path d="M33.919 114.881C33.4477 114.599 33.1811 114.01 33.2892 113.356L34.7092 104.574C34.8489 103.698 35.6018 103.037 36.3876 103.095C37.1713 103.156 37.6948 103.913 37.5551 104.79L36.1351 113.571C35.9954 114.447 35.2424 115.109 34.4567 115.051C34.259 115.037 34.0791 114.976 33.919 114.881Z" fill="#5F2583"/>
<path d="M30.0777 113.707C29.6064 113.425 29.3398 112.836 29.4479 112.182L30.8679 103.4C31.0076 102.524 31.7605 101.863 32.5462 101.921C33.33 101.982 33.8535 102.74 33.7138 103.616L32.2938 112.397C32.1541 113.274 31.4011 113.935 30.6154 113.877C30.4177 113.863 30.2378 113.803 30.0777 113.707Z" fill="#5F2583"/>
<path d="M35.3838 55.2514C36.1112 55.3796 36.8786 55.0853 37.3196 54.4405C37.3467 54.3984 40.1721 50.2957 42.6285 48.4596C44.5588 47.019 48.2286 45.1195 48.2638 45.0984C49.2113 44.6092 49.5832 43.4485 49.0913 42.5064C48.5994 41.5644 47.4312 41.1983 46.4844 41.6836C46.324 41.7686 42.4944 43.7493 40.3058 45.3826C37.3328 47.6041 34.2517 52.0836 34.1232 52.2757C33.5227 53.1541 33.7532 54.3507 34.6366 54.9478C34.8677 55.1057 35.121 55.2051 35.3838 55.2514Z" fill="#8D30B9"/>
<path d="M91.8557 41.3965C92.6639 41.4008 93.4217 40.8932 93.6982 40.0907C94.0419 39.0848 93.5045 37.9935 92.4937 37.6535C92.2623 37.5754 86.8227 35.743 83.3976 35.0442C79.6751 34.2824 74.3192 35.8621 73.7185 36.0436C72.6953 36.3537 72.1229 37.4315 72.4328 38.4447C72.7425 39.4618 73.8251 40.0328 74.8444 39.7189C76.2126 39.303 80.2724 38.3319 82.6124 38.8095C85.8021 39.4609 91.1914 41.2738 91.2455 41.2933C91.446 41.3636 91.6508 41.3955 91.8557 41.3965Z" fill="#8D30B9"/>
<path d="M56.918 129.078L50.2779 134.168" stroke="#FFE920" stroke-width="2.68294" stroke-linecap="round" stroke-linejoin="round"/>
<path d="M70.1109 96.0462L70.1102 121.199L55.8537 130.549" stroke="#8D30B9" stroke-width="5.36588" stroke-linecap="round" stroke-linejoin="round"/>
<path d="M116.635 122.542L120.631 129.893" stroke="#FFE920" stroke-width="2.68294" stroke-linecap="round" stroke-linejoin="round"/>
<path d="M88.3373 99.9245L112.42 107.18L117.083 122.803" stroke="#8D30B9" stroke-width="5.36588" stroke-linecap="round" stroke-linejoin="round"/>
<path d="M54.367 152.312C56.1898 152.641 57.9337 151.429 58.2619 149.606C58.5901 147.783 57.3785 146.039 55.5556 145.711L54.367 152.312ZM44.5446 138.029L42.6612 135.254C41.52 136.029 40.9694 137.423 41.2735 138.768L44.5446 138.029ZM48.0463 131.599L42.6612 135.254L46.4281 140.804L51.8131 137.149L48.0463 131.599ZM44.5446 138.029C41.2735 138.768 41.2736 138.769 41.2738 138.769C41.2738 138.77 41.274 138.77 41.2741 138.771C41.2743 138.772 41.2745 138.773 41.2748 138.774C41.2752 138.776 41.2758 138.778 41.2764 138.781C41.2776 138.786 41.2791 138.793 41.2808 138.8C41.2842 138.815 41.2887 138.834 41.2941 138.857C41.305 138.902 41.3199 138.963 41.3391 139.039C41.3773 139.19 41.4325 139.399 41.5055 139.655C41.6512 140.165 41.8709 140.871 42.1737 141.681C42.7635 143.259 43.7374 145.42 45.2242 147.289L50.4726 143.112C49.6089 142.027 48.9309 140.602 48.4565 139.333C48.2272 138.719 48.0616 138.186 47.9551 137.813C47.9021 137.628 47.8644 137.484 47.8413 137.393C47.8298 137.347 47.822 137.315 47.8177 137.297C47.8156 137.289 47.8144 137.283 47.8141 137.282C47.8139 137.281 47.814 137.282 47.8143 137.283C47.8144 137.284 47.8146 137.284 47.8149 137.286C47.815 137.286 47.8152 137.287 47.8153 137.287C47.8154 137.288 47.8155 137.288 47.8156 137.288C47.8157 137.289 47.8158 137.29 44.5446 138.029ZM45.2242 147.289C46.9388 149.443 49.36 150.667 51.0592 151.335C51.9508 151.686 52.7499 151.924 53.3308 152.076C53.6231 152.152 53.865 152.208 54.0417 152.247C54.1302 152.266 54.2027 152.281 54.2575 152.292C54.2848 152.297 54.3078 152.301 54.3261 152.305C54.3353 152.307 54.3433 152.308 54.3501 152.309C54.3535 152.31 54.3566 152.311 54.3594 152.311C54.3608 152.311 54.3622 152.312 54.3634 152.312C54.3641 152.312 54.3649 152.312 54.3653 152.312C54.3661 152.312 54.367 152.312 54.9613 149.012C55.5556 145.711 55.5564 145.711 55.5572 145.712C55.5575 145.712 55.5582 145.712 55.5587 145.712C55.5597 145.712 55.5606 145.712 55.5614 145.712C55.5631 145.713 55.5645 145.713 55.5656 145.713C55.5678 145.713 55.5689 145.714 55.569 145.714C55.5692 145.714 55.5651 145.713 55.557 145.711C55.5408 145.708 55.5087 145.702 55.4624 145.692C55.3695 145.671 55.221 145.637 55.0301 145.587C54.6446 145.486 54.1061 145.326 53.5134 145.093C52.2437 144.594 51.1085 143.911 50.4726 143.112L45.2242 147.289Z" fill="#8D30B9"/>
<path d="M138.99 134.188C140.541 133.176 140.979 131.098 139.967 129.546C138.955 127.995 136.877 127.558 135.325 128.57L138.99 134.188ZM122.976 135.568L119.945 137.004C120.602 138.392 122.118 139.156 123.625 138.859L122.976 135.568ZM117.045 130.88L119.945 137.004L126.007 134.133L123.107 128.009L117.045 130.88ZM122.976 135.568C123.625 138.859 123.625 138.859 123.625 138.859C123.625 138.859 123.625 138.859 123.625 138.858C123.626 138.858 123.626 138.858 123.627 138.858C123.628 138.858 123.629 138.858 123.63 138.857C123.634 138.857 123.638 138.856 123.645 138.855C123.657 138.852 123.674 138.849 123.697 138.844C123.742 138.835 123.807 138.822 123.892 138.805C124.06 138.771 124.303 138.722 124.605 138.659C125.208 138.534 126.05 138.357 127.004 138.145C128.889 137.726 131.303 137.154 133.192 136.581L131.245 130.163C129.613 130.658 127.405 131.184 125.549 131.597C124.633 131.8 123.824 131.971 123.245 132.091C122.955 132.151 122.724 132.198 122.566 132.23C122.487 132.246 122.426 132.258 122.385 132.266C122.365 132.27 122.35 132.273 122.34 132.275C122.335 132.276 122.332 132.277 122.33 132.277C122.329 132.278 122.328 132.278 122.327 132.278C122.327 132.278 122.327 132.278 122.327 132.278C122.327 132.278 122.327 132.278 122.327 132.278C122.327 132.278 122.327 132.278 122.976 135.568ZM133.192 136.581C135.091 136.005 136.468 135.454 137.408 135.023C137.878 134.807 138.237 134.622 138.498 134.478C138.628 134.407 138.733 134.346 138.815 134.297C138.856 134.272 138.891 134.251 138.92 134.233C138.934 134.223 138.948 134.215 138.959 134.208C138.965 134.204 138.971 134.2 138.976 134.197C138.978 134.195 138.981 134.194 138.983 134.192C138.984 134.191 138.986 134.191 138.987 134.19C138.987 134.19 138.988 134.189 138.988 134.189C138.989 134.188 138.99 134.188 137.158 131.379C135.325 128.57 135.326 128.569 135.327 128.569C135.327 128.569 135.328 128.568 135.329 128.568C135.33 128.567 135.331 128.567 135.332 128.566C135.334 128.565 135.336 128.563 135.338 128.562C135.341 128.56 135.345 128.557 135.348 128.555C135.354 128.552 135.359 128.549 135.362 128.546C135.369 128.542 135.37 128.542 135.365 128.545C135.355 128.55 135.322 128.57 135.265 128.602C135.149 128.665 134.935 128.778 134.61 128.927C133.96 129.225 132.868 129.67 131.245 130.163L133.192 136.581Z" fill="#8D30B9"/>
<path d="M56.5168 132.951L53.458 128.8" stroke="#8D30B9" stroke-width="5.36588" stroke-linecap="round" stroke-linejoin="round"/>
<path d="M119.79 122.926L114.934 124.657" stroke="#8D30B9" stroke-width="5.36588" stroke-linecap="round" stroke-linejoin="round"/>
<rect width="28.6193" height="99.1919" rx="9.42126" transform="matrix(-0.953176 0.301622 0.304931 0.952628 65.1294 7.86279)" fill="#FFE920"/>
<rect width="24.1645" height="95.403" rx="9.42126" transform="matrix(-0.953176 0.301622 0.304931 0.952628 65.1436 7.90454)" fill="white"/>
<path d="M38.0486 15.1067C35.9148 15.2808 34.318 14.7437 34.2981 14.7357C33.3481 14.4084 32.3157 14.8991 31.9905 15.8326C31.678 16.7469 32.1443 17.7412 33.0422 18.1007L33.1099 18.1279C33.2132 18.1644 35.7147 19.0356 38.9623 18.6343C42.814 18.1606 48.6075 16.4726 52.2592 13.274C54.0851 11.6748 55.8591 9.6776 55.9331 9.59118C56.5897 8.84847 56.5107 7.70958 55.7475 7.05099C54.9885 6.3941 53.8366 6.4598 53.1783 7.20669C53.1783 7.20669 53.1716 7.21413 53.1611 7.2258C53.0316 7.36991 52.1931 8.30304 51.1586 9.32299C49.8858 7.17102 47.2451 2.71582 46.7193 1.90388C46.0193 0.829672 36.1998 6.76726 36.2045 8.3617C36.2106 9.44683 37.3315 12.9652 38.0486 15.1067Z" fill="#8D30B9"/>
<path d="M38.0486 15.1067L38.3462 15.0075C38.3769 15.099 38.3638 15.1995 38.3108 15.28C38.2579 15.3604 38.1708 15.412 38.0747 15.4198L38.0486 15.1067ZM34.2981 14.7357L34.3998 14.4387C34.4046 14.4404 34.4095 14.4422 34.4142 14.4441L34.2981 14.7357ZM31.9905 15.8326L31.6935 15.7304L31.6941 15.7286L31.9905 15.8326ZM33.0422 18.1007L32.9261 18.3923L32.9261 18.3923L33.0422 18.1007ZM33.1099 18.1279L33.0058 18.4243L32.9938 18.4195L33.1099 18.1279ZM38.9623 18.6343L38.9232 18.3225L38.9233 18.3225L38.9623 18.6343ZM52.2592 13.274L52.0522 13.0375L52.2592 13.274ZM55.9331 9.59118L55.6944 9.38651L55.6978 9.38276L55.9331 9.59118ZM55.7475 7.05099L55.5427 7.2887L55.5424 7.28839L55.7475 7.05099ZM53.1783 7.20669L53.414 7.41478L53.411 7.41808L53.1783 7.20669ZM53.1611 7.2258L53.3947 7.43611L53.3947 7.43611L53.1611 7.2258ZM51.1586 9.32299L51.3792 9.54699C51.3105 9.61478 51.2143 9.64704 51.1184 9.63446C51.0226 9.62188 50.9378 9.56585 50.8886 9.48256L51.1586 9.32299ZM46.7193 1.90388L46.9821 1.73269L46.9826 1.73345L46.7193 1.90388ZM36.2045 8.3617L35.8905 8.36279L35.8905 8.36196L36.2045 8.3617ZM38.0747 15.4198C35.8849 15.5985 34.2394 15.0503 34.182 15.0273L34.4142 14.4441C34.3966 14.437 35.9446 14.9632 38.0224 14.7936L38.0747 15.4198ZM34.1965 15.0327C33.4055 14.7602 32.5539 15.1705 32.287 15.9366L31.6941 15.7286C32.0775 14.6278 33.2906 14.0566 34.3998 14.4387L34.1965 15.0327ZM32.2876 15.9348C32.0301 16.6882 32.4133 17.5108 33.1583 17.8091L32.9261 18.3923C31.8754 17.9716 31.3259 16.8057 31.6935 15.7304L32.2876 15.9348ZM33.1583 17.8091L33.226 17.8362L32.9938 18.4195L32.9261 18.3923L33.1583 17.8091ZM33.214 17.8317C33.2962 17.8608 35.7445 18.7153 38.9232 18.3225L39.0014 18.9461C35.6849 19.3559 33.1303 18.468 33.0059 18.424L33.214 17.8317ZM38.9233 18.3225C42.745 17.8525 48.4673 16.1775 52.0522 13.0375L52.4663 13.5106C48.7478 16.7677 42.883 18.4687 39.0012 18.9461L38.9233 18.3225ZM52.0522 13.0375C53.8625 11.4518 55.6257 9.4669 55.6945 9.38653L56.1717 9.79584C56.0926 9.8883 54.3077 11.8977 52.4663 13.5106L52.0522 13.0375ZM55.6978 9.38276C56.2373 8.77253 56.1748 7.83413 55.5427 7.28869L55.9522 6.81329C56.8465 7.58503 56.9422 8.92441 56.1684 9.79961L55.6978 9.38276ZM55.5424 7.28839C54.9107 6.74161 53.9558 6.80003 53.414 7.41476L52.9427 6.99861C53.7175 6.11957 55.0664 6.04658 55.9526 6.81359L55.5424 7.28839ZM53.1783 7.20669C53.411 7.41808 53.411 7.41808 53.411 7.41808C53.411 7.41807 53.411 7.41807 53.411 7.41807C53.411 7.41807 53.411 7.41807 53.411 7.41807C53.411 7.41807 53.411 7.41807 53.411 7.41807C53.411 7.41807 53.411 7.41807 53.411 7.41807C53.411 7.41808 53.411 7.41809 53.411 7.41811C53.4109 7.41815 53.4109 7.41822 53.4108 7.41831C53.4106 7.4185 53.4104 7.4188 53.41 7.4192C53.4093 7.42 53.4082 7.42121 53.4068 7.42279C53.4039 7.42593 53.3998 7.43051 53.3947 7.43611L52.9274 7.01549C52.9329 7.00942 52.9374 7.00444 52.9405 7.00095C52.9421 6.9992 52.9434 6.99782 52.9442 6.99686C52.9447 6.99638 52.945 6.99601 52.9452 6.99575C52.9454 6.99561 52.9455 6.99551 52.9455 6.99543C52.9456 6.9954 52.9456 6.99537 52.9456 6.99534C52.9456 6.99533 52.9456 6.99532 52.9456 6.99531C52.9456 6.99531 52.9456 6.99531 52.9456 6.9953C52.9456 6.9953 52.9457 6.9953 52.9457 6.9953C52.9457 6.9953 52.9457 6.9953 52.9457 6.9953C52.9457 6.9953 52.9457 6.9953 53.1783 7.20669ZM53.3947 7.43611C53.264 7.58167 52.4205 8.52035 51.3792 9.54699L50.9381 9.09899C51.9657 8.08574 52.7992 7.15816 52.9274 7.01549L53.3947 7.43611ZM50.8886 9.48256C49.6129 7.32571 46.9772 2.87921 46.4559 2.07432L46.9826 1.73345C47.513 2.55243 50.1588 7.01634 51.4287 9.16342L50.8886 9.48256ZM46.4564 2.07507C46.4825 2.11513 46.5077 2.10186 46.4438 2.0931C46.381 2.08448 46.2772 2.08786 46.1245 2.11636C45.8221 2.17286 45.4054 2.3127 44.903 2.52496C43.9033 2.94734 42.6247 3.6303 41.3614 4.40042C40.0984 5.17027 38.8625 6.02001 37.9464 6.772C37.4874 7.14875 37.1169 7.49431 36.8642 7.78774C36.7378 7.93455 36.647 8.06128 36.5893 8.16635C36.5294 8.27545 36.5184 8.33749 36.5184 8.36145L35.8905 8.36196C35.89 8.18661 35.9551 8.01542 36.0389 7.86289C36.1249 7.70633 36.2452 7.54306 36.3882 7.37702C36.6744 7.04475 37.0757 6.67323 37.5476 6.2859C38.4932 5.50973 39.755 4.64325 41.0339 3.86367C42.3123 3.08437 43.6196 2.38469 44.6577 1.94607C45.1743 1.72783 45.6396 1.56757 46.0081 1.49874C46.1909 1.46458 46.3698 1.44898 46.5277 1.47063C46.6846 1.49213 46.8685 1.55835 46.9821 1.73269L46.4564 2.07507ZM36.5184 8.36062C36.5197 8.59425 36.5835 8.98792 36.7005 9.50327C36.8157 10.0108 36.977 10.6128 37.1615 11.2514C37.5303 12.5281 37.9882 13.9383 38.3462 15.0075L37.7509 15.206C37.3918 14.1336 36.9307 12.7138 36.5583 11.4247C36.3722 10.7803 36.2072 10.1654 36.0882 9.64122C35.9709 9.12477 35.8923 8.67173 35.8905 8.36279L36.5184 8.36062Z" fill="#8D30B9"/>
<path d="M88.0997 37.1341C89.8906 33.5806 94.2371 32.1396 97.808 33.9156L127.34 48.6029C127.403 48.6322 127.466 48.6624 127.529 48.6937C131.1 50.4697 132.543 54.7901 130.752 58.3436L115.85 87.9135C114.059 91.4671 109.712 92.908 106.141 91.1321C102.571 89.3561 101.128 85.0357 102.918 81.4822L114.577 58.3491L91.3228 46.784C87.7519 45.008 86.3089 40.6876 88.0997 37.1341Z" fill="#FFE920"/>
<path d="M88.8549 36.2705C90.443 33.1191 94.1842 32.2257 97.351 33.8007L128.03 48.9681C128.086 48.9941 128.142 49.021 128.198 49.0487C131.365 50.6237 132.644 54.4551 131.056 57.6065L116.78 86.2375C115.192 89.3888 111.337 90.6667 108.17 89.0918C105.003 87.5168 104.602 84.1333 106.19 80.9819L117.8 57.6065L92.3057 44.5858C89.1389 43.0108 87.2667 39.4218 88.8549 36.2705Z" fill="white"/>
<path d="M21.1986 78.2492L38.6618 59.1111C41.344 56.1717 41.1186 51.6223 38.1584 48.9497C35.1983 46.2772 30.6242 46.4935 27.942 49.433L5.68409 73.8255C5.66321 73.8478 5.64245 73.8703 5.62179 73.8929C2.93958 76.8324 3.16493 81.3818 6.12513 84.0544L30.7579 106.294C33.7181 108.966 38.2922 108.75 40.9744 105.81C43.6566 102.871 43.4312 98.3215 40.471 95.6489L21.1986 78.2492Z" fill="#FFE920"/>
<path d="M21.3075 78.1789L38.7164 59.0183C40.63 56.9211 41.1693 53.1552 39.5972 50.5109C38.0251 47.8666 34.2214 48.5283 32.3077 50.6255L10.2384 75.0228C10.2235 75.0387 10.2087 75.0547 10.194 75.0709C8.28029 77.1681 8.44107 80.414 10.5531 82.3208L33.8415 103.511C35.9536 105.418 39.217 105.263 41.1307 103.166C43.0444 101.069 42.8836 97.8231 40.7716 95.9163L21.3075 78.1789Z" fill="white"/>
<path d="M28.2969 6.77279C26.7679 8.32754 23.1456 13.4226 24.6993 19.619" stroke="#8D30B9" stroke-width="1.25617" stroke-linecap="round" stroke-linejoin="round"/>
<path d="M49.2001 19.0893C48.3196 19.0755 45.7136 19.3181 43.7438 20.848" stroke="#8D30B9" stroke-width="1.25617" stroke-linecap="round" stroke-linejoin="round"/>
<path d="M57.5536 40.0671C58.3928 40.3341 60.9581 40.853 63.2853 39.9557" stroke="#8D30B9" stroke-width="1.25617" stroke-linecap="round" stroke-linejoin="round"/>
<path d="M64.3389 16.0996C63.5068 16.3879 61.1411 17.5073 59.8135 19.6188" stroke="#8D30B9" stroke-width="1.25617" stroke-linecap="round" stroke-linejoin="round"/>
<path d="M70.5367 29.9838C79.5026 27.4992 75.7906 19.0791 74.1581 15.6308C73.9295 15.1482 73.3754 14.9138 72.8701 15.0867C71.0806 15.6987 66.8547 17.1408 62.7004 18.5341C58.6106 19.9059 54.9122 21.0297 50.7798 22.2807C46.1575 23.6801 40.5186 25.3401 38.1437 26.0372C37.5386 26.2148 37.2341 26.8881 37.4968 27.4614C41.186 35.5136 43.6785 38.6823 51.4903 36.1777C59.6055 33.5759 57.4992 30.0182 56.5269 26.674C56.5181 26.6437 56.5082 26.6145 56.4981 26.5848L56.4953 26.5765C56.3886 26.2611 55.8899 24.4793 57.9818 23.8342C60.0418 23.199 61.0335 24.795 61.2175 25.1336C61.2399 25.1749 61.2617 25.2142 61.2865 25.2541C62.6441 27.4376 62.8256 32.1206 70.5367 29.9838Z" fill="#8D30B9"/>
<path d="M46.3833 32.624L45.681 34.7918" stroke="white" stroke-width="1.73212" stroke-linecap="round" stroke-linejoin="round"/>
<path d="M49.0081 24.9471L47.1705 30.5901" stroke="white" stroke-width="1.73212" stroke-linecap="round" stroke-linejoin="round"/>
<path d="M69.5232 24.4867L68.4594 27.4877" stroke="white" stroke-width="1.73212" stroke-linecap="round" stroke-linejoin="round"/>
<path d="M71.7872 17.6422L70.2418 22.0715" stroke="white" stroke-width="1.73212" stroke-linecap="round" stroke-linejoin="round"/>
<path d="M72.9466 21.261L71.109 26.9041" stroke="white" stroke-width="1.73212" stroke-linecap="round" stroke-linejoin="round"/>
<path d="M50.5335 28.4476L48.6959 34.0906" stroke="white" stroke-width="1.73212" stroke-linecap="round" stroke-linejoin="round"/>
</svg>
