<svg width="17" height="17" viewBox="0 0 17 17" fill="none" xmlns="http://www.w3.org/2000/svg">
<path d="M7.66713 0.832927C7.99476 0.122629 9.00427 0.12263 9.3319 0.832928L11.106 4.67911C11.2395 4.96859 11.5138 5.16792 11.8304 5.20545L16.0366 5.70416C16.8133 5.79626 17.1253 6.75636 16.551 7.28745L13.4413 10.1632C13.2072 10.3797 13.1025 10.7022 13.1646 11.0149L13.9901 15.1693C14.1425 15.9365 13.3258 16.5299 12.6432 16.1478L8.94725 14.0789C8.66907 13.9232 8.32996 13.9232 8.05177 14.0789L4.35579 16.1478C3.67323 16.5299 2.85652 15.9365 3.00897 15.1693L3.83444 11.0149C3.89657 10.7022 3.79178 10.3797 3.55772 10.1632L0.448009 7.28745C-0.126282 6.75636 0.185675 5.79626 0.962452 5.70416L5.1686 5.20545C5.48518 5.16792 5.75953 4.96859 5.89306 4.67911L7.66713 0.832927Z" fill="white" fill-opacity="0.5"/>
</svg>
