<svg width="84" height="76" viewBox="0 0 84 76" fill="none" xmlns="http://www.w3.org/2000/svg">
<circle cx="46" cy="38.1528" r="37.5" fill="white"/>
<path d="M64.6049 36.8388L32.5608 18.3378C31.1739 17.5374 29.4414 18.5384 29.4414 20.1392L29.4414 57.1412C29.4414 58.742 31.1739 59.743 32.5608 58.9426L64.6049 40.4416C65.9898 39.6412 65.9898 37.6392 64.6049 36.8388Z" fill="#F44C75"/>
<path d="M45.1299 42.7788C45.1299 43.26 44.687 43.6223 44.2476 43.4316C42.6375 42.7328 41.5097 41.1193 41.5097 39.2455C41.5097 37.3717 42.6375 35.7583 44.2476 35.0594C44.687 34.8687 45.1299 35.231 45.1299 35.7122L45.1299 42.7788Z" fill="#8D30B9"/>
<path d="M48.4742 42.5995C48.4307 41.8285 49.0374 41.2421 49.8293 41.2898C50.6212 41.3375 51.2985 42.0013 51.3421 42.7723C51.3856 43.5434 50.7789 44.1298 49.987 44.0821C49.1951 44.0343 48.5178 43.3706 48.4742 42.5995Z" fill="white"/>
<path d="M48.3264 34.962C48.2829 34.191 48.8896 33.6046 49.6815 33.6523C50.4734 33.7 51.1506 34.3637 51.1942 35.1347C51.2377 35.9057 50.631 36.4921 49.8391 36.4444C49.0472 36.3967 48.37 35.733 48.3264 34.962Z" fill="white"/>
<mask id="path-6-outside-1_34_9402" maskUnits="userSpaceOnUse" x="-4.07075" y="28.3405" width="45.1783" height="45.3313" fill="black">
<rect fill="white" x="-4.07075" y="28.3405" width="45.1783" height="45.3313"/>
<path fill-rule="evenodd" clip-rule="evenodd" d="M20.8343 60.9528C20.8343 59.7373 27.5643 45.5902 30.9293 38.6686L6.70138 62.9786L7.96325 64.2447L18.0582 54.1156L20.8343 60.9528ZM8.71961 48.797C9.93101 48.797 24.0303 42.0442 30.9286 38.6678L6.70061 62.9778L5.43874 61.7117L15.5337 51.5825L8.71961 48.797Z"/>
</mask>
<path fill-rule="evenodd" clip-rule="evenodd" d="M20.8343 60.9528C20.8343 59.7373 27.5643 45.5902 30.9293 38.6686L6.70138 62.9786L7.96325 64.2447L18.0582 54.1156L20.8343 60.9528ZM8.71961 48.797C9.93101 48.797 24.0303 42.0442 30.9286 38.6678L6.70061 62.9778L5.43874 61.7117L15.5337 51.5825L8.71961 48.797Z" fill="white"/>
<path d="M30.9293 38.6686L33.3968 39.8763C33.9848 38.6666 33.6156 37.2077 32.5236 36.426C31.4316 35.6444 29.9366 35.7691 28.9881 36.7208L30.9293 38.6686ZM20.8343 60.9528L18.2919 61.9921C18.7872 63.2119 20.0738 63.9092 21.3621 63.656C22.6504 63.4028 23.5797 62.27 23.5797 60.9528L20.8343 60.9528ZM6.70138 62.9786L4.76013 61.0308C3.68801 62.1065 3.68801 63.8507 4.76013 64.9264L6.70138 62.9786ZM7.96325 64.2447L6.022 66.1926C6.53685 66.7092 7.23514 66.9994 7.96325 66.9994C8.69136 66.9994 9.38965 66.7092 9.9045 66.1926L7.96325 64.2447ZM18.0582 54.1156L20.6007 53.0763C20.2537 52.2216 19.5032 51.5981 18.6017 51.4154C17.7001 51.2328 16.7673 51.5152 16.117 52.1677L18.0582 54.1156ZM30.9286 38.6678L32.8698 40.6157C33.8183 39.664 33.9425 38.1639 33.1635 37.0681C32.3846 35.9724 30.9305 35.602 29.7249 36.192L30.9286 38.6678ZM8.71961 48.797L8.71961 46.0424C7.40687 46.0424 6.27782 46.9748 6.02547 48.2675C5.77312 49.5601 6.46808 50.8511 7.6838 51.3481L8.71961 48.797ZM6.70061 62.9778L4.75936 64.9257C5.27422 65.4423 5.9725 65.7325 6.70061 65.7325C7.42872 65.7325 8.12701 65.4423 8.64187 64.9257L6.70061 62.9778ZM5.43874 61.7117L3.49749 59.7639C2.42537 60.8396 2.42537 62.5838 3.49749 63.6595L5.43874 61.7117ZM15.5337 51.5825L17.475 53.5303C18.1253 52.8778 18.4068 51.9418 18.2247 51.0373C18.0427 50.1327 17.4213 49.3797 16.5695 49.0315L15.5337 51.5825ZM28.4619 37.4609C26.7747 40.9314 24.2424 46.2162 22.1291 50.7923C21.0738 53.0773 20.1137 55.2055 19.4139 56.8492C19.0655 57.6673 18.7691 58.3947 18.5555 58.974C18.4496 59.2609 18.3512 59.5459 18.2756 59.8056C18.2286 59.9669 18.089 60.438 18.089 60.9528L23.5797 60.9528C23.5797 61.3156 23.4926 61.5338 23.5459 61.3509C23.5705 61.2664 23.62 61.116 23.7047 60.8863C23.8722 60.4323 24.1279 59.8009 24.4631 59.0136C25.1303 57.4466 26.063 55.3775 27.1109 53.1086C29.2037 48.5769 31.719 43.3274 33.3968 39.8763L28.4619 37.4609ZM8.64263 64.9264L32.8706 40.6164L28.9881 36.7208L4.76013 61.0308L8.64263 64.9264ZM9.9045 62.2969L8.64263 61.0308L4.76013 64.9264L6.022 66.1926L9.9045 62.2969ZM16.117 52.1677L6.022 62.2969L9.9045 66.1926L19.9995 56.0634L16.117 52.1677ZM23.3768 59.9134L20.6007 53.0763L15.5158 55.1549L18.2919 61.9921L23.3768 59.9134ZM29.7249 36.192C26.2855 37.8755 21.0537 40.3993 16.5373 42.4992C14.276 43.5506 12.2139 44.4865 10.6522 45.156C9.86762 45.4923 9.23835 45.7488 8.78581 45.9169C8.55688 46.0019 8.40705 46.0516 8.32285 46.0763C8.14059 46.1297 8.35802 46.0424 8.71961 46.0424L8.71961 51.5516C9.23263 51.5516 9.70218 51.4115 9.8629 51.3644C10.1217 51.2885 10.4057 51.1898 10.6917 51.0836C11.2691 50.8692 11.9939 50.5718 12.8093 50.2223C14.4475 49.5201 16.5685 48.5568 18.8458 47.4979C23.4064 45.3774 28.6734 42.8366 32.1322 41.1436L29.7249 36.192ZM8.64187 64.9257L32.8698 40.6157L28.9873 36.72L4.75936 61.03L8.64187 64.9257ZM3.49749 63.6595L4.75936 64.9257L8.64187 61.03L7.38 59.7639L3.49749 63.6595ZM13.5925 49.6347L3.49749 59.7639L7.37999 63.6595L17.475 53.5303L13.5925 49.6347ZM7.6838 51.3481L14.4979 54.1336L16.5695 49.0315L9.75542 46.2459L7.6838 51.3481Z" fill="#8D30B9" mask="url(#path-6-outside-1_34_9402)"/>
</svg>
