<svg width="36" height="36" viewBox="0 0 36 36" fill="none" xmlns="http://www.w3.org/2000/svg">
<path d="M18 36C27.9255 36 36 27.9255 36 18C36 8.0745 27.9255 0 18 0C8.0745 0 0 8.0745 0 18C0 27.9255 8.0745 36 18 36Z" fill="#8D30B9"/>
<path d="M11.8439 21.2325L14.1959 20.211L13.5359 20.8725C13.3244 21.084 13.2059 21.3705 13.2059 21.6675V26.07C13.2059 27.078 14.4239 27.567 15.1259 26.865L17.4869 24.504L22.6319 27.0765C23.2979 27.4095 24.1034 27.015 24.2414 26.271L27.1769 10.1295C27.3314 9.26101 26.4764 8.55901 25.6589 8.88001L6.58495 16.3455C5.72995 16.6785 5.61595 17.8485 6.38995 18.342L10.7909 21.15C11.1059 21.351 11.5034 21.3825 11.8439 21.2325ZM24.6029 11.712L22.2974 24.3945L17.7674 22.131C17.3294 21.912 16.8074 22.0035 16.4699 22.3425L15.4559 23.3565V22.137L19.9664 17.6265C20.8409 16.752 19.8569 15.309 18.7229 15.7995L11.4974 18.9345L9.46645 17.6385L24.6029 11.712Z" fill="white" stroke="#8D30B9" stroke-width="0.7"/>
</svg>
