<svg width="36" height="36" viewBox="0 0 36 36" fill="none" xmlns="http://www.w3.org/2000/svg">
<path d="M30.8016 5.29501C27.7806 2.26799 23.7686 0.41161 19.4894 0.0607314C15.2102 -0.290147 10.9455 0.887569 7.46451 3.38145C3.9835 5.87533 1.51537 9.5212 0.505315 13.6614C-0.504743 17.8017 0.0097636 22.1637 1.95603 25.9607L0.0455263 35.1626C0.0257028 35.2542 0.0251413 35.3488 0.0438774 35.4406C0.0626135 35.5324 0.100243 35.6194 0.154414 35.6962C0.233771 35.8126 0.347048 35.9023 0.479118 35.9531C0.611187 36.004 0.755763 36.0137 0.893538 35.981L9.9841 33.8434C13.8007 35.7253 18.1665 36.2029 22.3047 35.1912C26.443 34.1795 30.0852 31.744 32.5833 28.3182C35.0814 24.8924 36.2734 20.6984 35.9472 16.4825C35.6209 12.2667 33.7976 8.30237 30.8016 5.29501Z" fill="#8D30B9"/>
<path d="M27.4727 23.6577C26.7897 24.7248 25.7107 26.031 24.3545 26.355C21.9788 26.9246 18.3327 26.3747 13.7956 22.178L13.7395 22.1289C9.75025 18.4593 8.71415 15.4051 8.96493 12.9827C9.10351 11.6079 10.2584 10.3639 11.2318 9.55208C11.3857 9.42178 11.5682 9.32901 11.7647 9.28119C11.9612 9.23337 12.1662 9.23182 12.3634 9.27667C12.5606 9.32153 12.7445 9.41154 12.9004 9.53951C13.0563 9.66748 13.1798 9.82985 13.2611 10.0137L14.7294 13.2872C14.8248 13.4994 14.8602 13.7334 14.8317 13.9641C14.8032 14.1948 14.712 14.4134 14.5677 14.5966L13.8253 15.5524C13.666 15.7498 13.5699 15.99 13.5493 16.242C13.5287 16.494 13.5846 16.7464 13.7098 16.9666C14.1256 17.69 15.1221 18.7539 16.2275 19.7393C17.4681 20.8523 18.8441 21.8703 19.7152 22.2173C19.9483 22.3118 20.2046 22.3348 20.451 22.2835C20.6974 22.2322 20.9227 22.1088 21.0978 21.9293L21.959 21.0683C22.1252 20.9058 22.3318 20.7898 22.5579 20.7323C22.7839 20.6748 23.0213 20.6778 23.2458 20.741L26.7336 21.723C26.926 21.7816 27.1023 21.883 27.2491 22.0195C27.396 22.1561 27.5094 22.3241 27.5807 22.5108C27.652 22.6975 27.6794 22.8979 27.6607 23.0966C27.6419 23.2954 27.5777 23.4873 27.4727 23.6577Z" fill="white"/>
</svg>
